<?xml version="1.0" encoding="UTF-8"?>
<svg id="Layer_2" data-name="Layer 2" xmlns="http://www.w3.org/2000/svg" viewBox="0 0 79.41 195.67">
  <defs>
    <style>
      .cls-1 {
        fill: #7a6350;
      }

      .cls-2 {
        fill: #49261a;
        opacity: .4;
      }

      .cls-3 {
        fill: #c6af83;
      }

      .cls-4 {
        fill: none;
        stroke: #3e3022;
        stroke-miterlimit: 10;
        stroke-width: 2px;
      }
    </style>
  </defs>
  <g id="Layer_6" data-name="Layer 6">
    <g>
      <path class="cls-1" d="m54.4,10.55l-.27.91-5.28,17.54-3.78,4.56-3.78,3.78s-.78,7-.78,7.33,2,6.11,2.44,6.33,11,8.89,11.67,9.11,5.67,1.67,5.67,1.67c0,0,6-2.11,6.22-2.67s5-8.78,5-8.78c0,0,2-10.89,2-11.33s-1.56-10.67-1.56-10.67c0,0,2.44-8.56,2.44-9s1.67-13.78,1.44-14.11-5.78-4.56-6.11-4.22-10.22.78-10.22.78c0,0-3.44,2.33-3.56,2.67"/>
      <path class="cls-1" d="m76.84,61.33l-8.56,2.22-1.67,3.89s.89,3.44,1,3.78,6.44.89,6.89.67,3.44-1,3.56-1.44,1.67-5.56-.89-8.56"/>
      <path class="cls-1" d="m52.07,65.22c-.56.22-2.67,2.22-2.67,4.56s-1.56,2.44,1.78,3.56,8.56,1.11,8.56,1.11c0,0,4.78-5.78.11-7.44"/>
      <path class="cls-1" d="m37.07,57.33c.52-.08,3.8-.55,6.22,1.67,2.33,2.13,3.23,6.14,1.56,8-1.06,1.18-2.85,1.14-4.56,1.11-1.36-.03-3.91-.08-5.67-2-.34-.37-2.05-1.75-1.44-3.56.11-.33,2-3.78,2.33-4"/>
      <path class="cls-1" d="m26.96,57c.44-.22,3.44.56,5.44-4.33s4.67-5.44,1.78-7.44-8.11-1.44-8.11-1.44c0,0-1.89,2.11-1.89,2.78s1.56,7.67,1.56,8.11"/>
      <path class="cls-1" d="m22.4,60.44s2.67.89,3.44,2.89.56,4.89-.22,5.89-1.56,1.44-4.44,4.11-1.67,4.22-5,4.89-5.11,2.22-5.33-1.11,1.78-4.22,3.56-6.89,2.67-7.56,3.33-9.11,3.22-1.33,3.22-1.33"/>
      <path class="cls-1" d="m32.18,70.11c.56-.11,6.56,1.89,6.89,2s2.22,3.22.67,5.33-3.11,2.44-4.22,4.56-1,6-2.33,7.11-2.89,1.89-5.11.67-4-1.56-2.44-5.11,2.89-3.44,3-6-1.67-2.11-.33-4.56"/>
      <path class="cls-1" d="m50.4,78c-.33.33-2.78.89-2.89,4s1.56,4.89,1.22,7.89-1.33,4.89-.22,5.33,3.56,2.11,4.89,0,1.11-2.78,2.44-6.44,3.22-5,2.44-7.11-5.22-4.56-5-4.11"/>
      <path class="cls-1" d="m74.51,77c-.33,0-4.78,2.67-5.11,2.89s-2.33,11.89-2.33,12.22.44,3.22.44,3.22c0,0,4.56.44,4.89.22s2.22-3.44,2.22-3.44l.44-4.67,2.33-4.67-1.33-5.11"/>
      <path class="cls-1" d="m9.84,81.88c.56.11,3.33,2,3.33,2.56s-1.56,8.22-3.67,9-5.44-1-5.11-2.78,4.11-8.22,4.11-8.22l1.89-.89"/>
      <path class="cls-1" d="m29.07,95.55c-.11.33-1.56,8.78-1.67,8.67s-4.89,2.67-5.33-.78,1.67-9.56,1.89-9.89,4.33-.44,4.44,1"/>
      <path class="cls-1" d="m49.96,99.33c-.33,0-2.89,3-3,6.56s-.78,4.89,1.67,5.11,5.11.44,5.33-2.22,1.11-5.78-.22-7.44"/>
      <path class="cls-1" d="m70.73,99.22c-.33.11-3.11,0-3.56,2.89s-.67,6.78.89,7.33,2.11,1.67,3.44-.78,3-6,1.67-7.44"/>
      <path class="cls-1" d="m8.07,100c.67-.22,1.89,6.56-.11,8.33s-5.56,2.67-6-.78-1.33-6.89.22-7.78,4.67-1.56,4.67-1.56"/>
      <path class="cls-1" d="m22.07,107.77s-2.44.78-2.44,3.56-.67,6.78,1.22,7.11,4.56-.22,4.56-1.56-.44-8.56-.44-8.56"/>
      <path class="cls-1" d="m50.18,114.77c-.44-.11-4.11,1.67-4.33,3.89s-.89,5.78.44,6.22,2.56.67,4.33-1.44,3.11-5.56,2.89-6.44"/>
      <path class="cls-1" d="m67.18,114.77c.22-.33-1.33-.22-1.78,3.22s-1.67,5.78-.44,6.44,3.33,2.22,4.22.67,1.67-8.78,1.67-8.78"/>
      <path class="cls-1" d="m65.84,131.77c0-.33-3.78.44-4.56,3.33s-2,5.44-.44,6.56,3.89,1.89,4.89.67,3-4.89,2.67-7.22"/>
      <path class="cls-1" d="m48.84,128.77c-.33.22-2.44,1.56-2.56,2.44s-.67,3.78.33,5.33,2.67,3.56,3.67,1.22,1.56-4.78,0-7.11"/>
      <path class="cls-1" d="m24.62,125.55s.44,5.33-.89,6.89-1.67,3.67-3.44,1.89-2.11-5.33-1.33-7.78,1.22-4.44,3-3.56"/>
      <path class="cls-1" d="m6.18,116s2.33,7.78,1,8.78-4,2.11-5,.22-1.44-4.44-.89-7,3.22-4.22,4.44-3"/>
      <path class="cls-1" d="m7.07,129.88c0,.78,3,7,0,8.44s-4.78,2.67-4.78.44-.22-4.89-.44-6.78,1.89-3.56,3.44-2.89"/>
      <path class="cls-1" d="m23.29,141.11c.11.44,1.22,7.22.22,8.11s-4.33,1.67-5-.56-1.67-5.78.33-7.56,4.11-1.67,4.11-1.67"/>
      <path class="cls-1" d="m46.84,141.55c-.11.56-2.67,8.22-2.67,8.22l1.67,2.22,3.11-.89,1.67-8s-1.89-2.22-1.78-1.89"/>
      <path class="cls-1" d="m60.73,145.22c.56.22,2.33,1.33,2.11,1.78l-2.11,4.22s-5.33,4.78-5.67,4.56,2.56-7.78,2.56-7.78l1.89-2"/>
      <path class="cls-1" d="m8.29,143.77c.33.67,2.11,6,2.11,6l-3,2.11-4.11-1.44s-.67-4.22-.44-5,3.44-2.44,3.44-2.44"/>
      <path class="cls-1" d="m21.84,154.77c-.11.22-2.56,3.56-2.56,3.89s.78,4.67.78,4.67c0,0,.89,2.22,1.33,2s2.56-.33,2.89-.33,1-4.11.78-4.67-2-5.22-2-5.22"/>
      <path class="cls-1" d="m43.84,154.88s-2.67,3.56-2.78,3.89-1.89,6.56-1.89,6.56c0,0,1.67,1.33,2.44,1.33s4-2.11,4-2.11c0,0,1.89-6.78,1.89-7.22s-1.56-2.78-1.44-2.44"/>
      <path class="cls-1" d="m9.84,155.66c.11.56,2,6.89,2,6.89l-1.67,2.44s-4.56-.89-4.22-1-.44-3.67-.44-4.11-1.22-2.33-.56-2.89,3.11-1.89,3.11-1.89"/>
      <path class="cls-1" d="m22.62,171.55c-.11.33.11,6.22.44,6.56s2.67,1.78,2.67,1.78l2.89-1.67s-1.22-4.22-1.22-4.67,0-3.33-.33-3.11-2.78-.44-2.78-.44"/>
      <path class="cls-1" d="m37.51,172.33c.33-.33,1.78-.67,2.22-.67s2.78.89,2.78.89c0,0-5.11,10-6.44,9.67s-.11-2,.44-5.33"/>
      <path class="cls-1" d="m12.51,169.55c.11,0,3.22,10.56,2.89,11.78s-3.22-.56-5-2.67-3.67-5.22-2.22-6.67,3.33-3,3.33-3"/>
      <path class="cls-1" d="m24.73,184.55s-.89,1.22,1.56,5.89,3.11,5.33,3.22,4.89,2-8.11.56-10-4.67-1.11-4.22-1.33"/>
      <path class="cls-3" d="m61.25,2.42c-1.56,1.85-2.96,3.61-3.65,5.82-.17.53-.29,1.12-.44,1.74l-.43,1.83-.85,3.67c-.57,2.45-1.16,4.91-1.89,7.36-.76,2.45-1.56,4.86-2.86,7.22-.66,1.19-1.55,2.28-2.56,3.2-1.05.92-1.95,1.56-2.68,2.44-1.45,1.77-2.73,3.99-3.09,6.13-.33,2.19.26,4.56,1.3,6.69,1.03,2.15,2.53,4.09,4.23,5.82l-1.2,1.23c-1.86-1.8-3.52-3.84-4.73-6.2-1.19-2.33-2.03-5.02-1.65-7.84.2-1.42.71-2.68,1.31-3.88.62-1.19,1.31-2.29,2.18-3.35.88-1.07,2.02-1.92,2.84-2.66.84-.79,1.55-1.67,2.1-2.68,1.11-2.05,1.94-4.42,2.66-6.76.71-2.36,1.29-4.78,1.86-7.22l.85-3.67.43-1.84c.14-.6.28-1.24.49-1.9.41-1.3,1.02-2.57,1.86-3.66.84-1.08,1.91-1.99,3.13-2.56l.8,1.07Z"/>
      <path class="cls-2" d="m71.29,28.88c.38,2.39.99,8.3-1.89,14.89-1.26,2.87-4.31,10.32-10.78,12.22-4.35,1.28-8.53-.81-8.89.22-.28.81,2.14,2.43,4,3.67,2.06,1.37,3.09,2.06,4.44,2.33,3.61.73,6.88-1.91,8-2.78,4.12-3.19,5.29-7.79,6.44-12.33.71-2.8,1.45-7.04,1.11-12.33"/>
    </g>
  </g>
  <g id="Bones">
    <path class="cls-4" d="m72.4,24.55c1.04-4.52,2.9-6.49,3.56-12.67.63-5.97-.72-7.78-1.33-8.44-1.59-1.74-3.86-1.95-6.67-2.22-2.9-.28-7.43-.71-10.67,1.78-1.62,1.25-2.13,2.63-4.22,10.67-3.34,12.8-3.3,14.06-5.11,16.67-3.04,4.36-5.24,3.84-6.67,7.78-2.02,5.59.83,11.03,1.11,11.56,1.49,2.75,3.43,4.15,6.67,6.44,5.74,4.07,8.88,6.28,12.22,5.78,6.82-1.03,11.79-12.98,12-22.44.15-6.97-2.36-8.46-.89-14.89Z"/>
    <path class="cls-4" d="m25.07,53.44c-.95-3.23-1.87-6.35,0-8.44,2.07-2.32,6.79-2.56,8.67-.22,1.89,2.35-.06,6.15-.67,7.33-1.29,2.52-4.08,5.54-6,4.89-1.06-.36-1.45-1.7-2-3.56Z"/>
    <path class="cls-4" d="m37.07,57.88c-3.11,1.11-4.83,5-3.78,7.11.63,1.25,2.57,1.65,6.44,2.44,2.61.54,3.94.79,4.67.22,1.74-1.35,1.39-6.04-1.33-8.44-1.42-1.25-3.75-2.13-6-1.33Z"/>
    <path class="cls-4" d="m56.4,65.22c-.93-.21-2.27-.51-3.56,0-2.71,1.07-4.27,5.35-2.89,7.33.61.87,2.18,1.1,5.33,1.56,2.6.38,3.91.55,4.67,0,1.75-1.28,1.78-5.09,0-7.11-1.08-1.22-2.62-1.57-3.56-1.78Z"/>
    <path class="cls-4" d="m67.73,71.22c-1.71-1.46-1.55-5.19.22-7.11.75-.81,1.76-1.13,3.78-1.78,2.32-.74,3.48-1.11,4.44-.67,2.39,1.1,2.24,5.55,2.22,6.22-.04,1.32-.07,2.15-.67,2.89-1.14,1.41-3.35,1.29-6.67,1.11-1.81-.1-2.73-.16-3.33-.67Z"/>
    <path class="cls-4" d="m16.51,77.55c2.12-1.2,2.33-2.29,4.67-4.67,3.16-3.21,4.36-2.82,5-4.67.77-2.21-.13-5.15-2.17-6.83-1.11-.92-3.43-2.2-5.17-1.33-1.94.97-.82,3.47-2.83,7.33-2.13,4.1-5.06,4.5-5.17,7.67,0,.2-.05,2.5,1.33,3.33,1.39.83,3.39-.3,4.33-.83Z"/>
    <path class="cls-4" d="m31.01,71.05c-2.08.98-2.61,3.53-2.67,3.83-.27,1.38.27,1.51.17,3-.17,2.52-1.76,2.99-2.67,6.17-.44,1.52-.83,2.89-.17,4,1.05,1.77,4.46,2.43,6.5,1.17,2.52-1.56.88-4.81,4-8.17,1.59-1.71,2.67-1.56,3.5-3.33.84-1.79.89-4.43-.5-5.67-.47-.42-1.43-.56-3.33-.83-2.65-.38-4-.56-4.83-.17Z"/>
    <path class="cls-4" d="m49.68,78.55c-2.12,1.16-2.61,3.69-2.67,4-.33,1.83.48,2.47,1,5.17.85,4.39-.62,6.12.67,7.33,1.33,1.26,4.35.98,5.83-.5,1.19-1.19.63-2.38,1.33-5.83.98-4.78,2.67-5.5,2-7.33-.91-2.49-5.24-4.43-8.17-2.83Z"/>
    <path class="cls-4" d="m75.01,77.38c-2.13-.76-4.43,1-5.5,2.33-1.06,1.31-.93,2.21-1.67,7.17-.87,5.8-1.39,6.86-.5,7.83,1.28,1.4,4.41,1.42,6,0,1.82-1.63.09-3.8,1.83-8,1.2-2.88,2.66-3.44,2.5-5.5-.12-1.53-1.09-3.27-2.67-3.83Z"/>
    <path class="cls-4" d="m69.68,99.55c-2.29.55-3.54,3.88-3,6.5.3,1.46,1.35,3.66,2.67,3.67,2.33,0,5.49-6.89,3.33-9.33-.74-.84-2.03-1.07-3-.83Z"/>
    <path class="cls-4" d="m70.51,115.72c-.89-1.15-2.93-1.59-4.17-.83-.84.51-1.07,1.85-1.5,4.5-.48,2.96-.7,4.45,0,5.17,1,1.03,3.16,1,4.33,0,.32-.28.66-.7,1.17-3.67.5-2.94.74-4.42.17-5.17Z"/>
    <path class="cls-4" d="m65.51,131.55c-2.51-.12-4.05,3.86-4.17,4.17-.85,2.27-1.08,6.04.83,7,1.32.66,3.28-.2,4.33-1.33.7-.76.91-1.67,1.33-3.5.55-2.37.82-3.55.17-4.67-.46-.8-1.41-1.61-2.5-1.67Z"/>
    <path class="cls-4" d="m62.34,147.05c-.37-.93-1.68-1.47-2.67-1.33-1.47.2-2.3,1.91-3.67,4.83-1.32,2.83-2.16,4.62-1.67,5,1.12.87,9.13-5.62,8-8.5Z"/>
    <path class="cls-4" d="m50.34,99.55c-2.51.29-3.65,4.65-3.83,7-.09,1.18-.17,2.44.67,3.5.89,1.13,2.56,1.68,3.83,1.33,3.05-.83,4.87-7.09,2.5-10.17-.08-.1-1.47-1.86-3.17-1.67Z"/>
    <path class="cls-4" d="m50.34,114.88c-2.25-.14-4.26,2.68-4.67,5.17-.29,1.82.08,4.63,1.67,5.17,1.71.58,3.73-1.84,4-2.17,1.52-1.82,2.7-5.09,1.17-7-.09-.11-.9-1.09-2.17-1.17Z"/>
    <path class="cls-4" d="m48.84,129.22c-1.4-.04-2.76,2.33-3,4.33-.23,1.89.4,4.64,2,5,1.42.32,3.11-1.36,3.67-3,.94-2.75-.98-6.29-2.67-6.33Z"/>
    <path class="cls-4" d="m46.51,142c-.62.52-.58,1.05-1.67,5.43-.58,2.31-.74,2.78-.5,3.34.58,1.34,2.81,1.76,4,.63.4-.39.53-.8,1.17-3.76.92-4.27.94-4.75.67-5.22-.66-1.15-2.56-1.35-3.67-.42Z"/>
    <path class="cls-4" d="m46.68,155.88c-.7-.88-2.1-1.18-3.17-.83-1.3.42-1.83,1.79-2.83,4.5-1.13,3.05-1.75,4.74-.83,6,.6.83,1.79,1.35,2.83,1.17,1.88-.34,2.66-2.88,3.67-6.17.72-2.34,1.11-3.69.33-4.67Z"/>
    <path class="cls-4" d="m41.96,172.33c-.66-1.05-2.84-1.27-4-.44-.93.67-.87,1.78-1.33,4.33-.8,4.45-1.85,5.87-1.44,6.11,1,.6,8.4-7.42,6.78-10Z"/>
    <path class="cls-4" d="m11.99,169.43c-.97-.37-2.58.8-3.27,2.11-1.37,2.59.5,6.35,2.75,8.33.97.86,2.95,2.2,3.78,1.61.46-.33.09-2.21-.69-5.95,0,0-.23-1.1-1.66-4.8-.24-.61-.44-1.11-.91-1.29Z"/>
    <path class="cls-4" d="m27.84,183.44c-1.06-.31-2.47.24-3,1.22-.45.83-.15,1.76.44,3.22,1.68,4.09,2.86,6.97,3.89,6.78,1.08-.2,1.34-3.65,1.11-5.89-.14-1.36-.49-4.76-2.44-5.33Z"/>
    <path class="cls-4" d="m9.4,82.11c-1.45.14-2.2,1.72-3.56,4.56-1.09,2.29-1.64,3.48-1.11,4.78.49,1.2,1.79,2.21,3.11,2.22,2.09.02,3.36-2.45,4.22-4.11.78-1.52,1.48-2.87,1-4.44-.49-1.62-2.12-3.15-3.67-3Z"/>
    <path class="cls-4" d="m24.07,93.77c-.46.26-.81.69-1.56,3.89-.78,3.35-1.16,5.04-.56,5.89.88,1.23,2.93,1.74,4.33,1.11,1.7-.76,1.97-2.96,2.33-5.89.23-1.82.34-2.84-.33-3.78-.92-1.29-2.96-1.93-4.22-1.22Z"/>
    <path class="cls-4" d="m21.51,108.33c-2.57,1.3-2.27,5.76-2.22,6.33.11,1.38.26,3.27,1.67,4,1.14.59,2.77.24,3.67-.67.37-.38.64-.88.44-6.22-.08-2.23-.16-2.98-.78-3.44-.78-.58-1.99-.4-2.78,0Z"/>
    <path class="cls-4" d="m21.51,122.88c-2.31.32-2.75,6.3-2.78,6.78-.11,1.73-.23,3.46.89,4.22.95.65,2.43.35,3.33-.33.96-.73,1.12-1.8,1.44-3.89.35-2.3.57-3.75-.33-5.11-.1-.15-1.26-1.85-2.56-1.67Z"/>
    <path class="cls-4" d="m19.96,140.11c-1.67.96-1.99,2.95-2.11,3.67-.37,2.27.24,5.76,2.33,6.33,1.08.3,2.42-.22,3.11-1.11.42-.54.51-1.09.33-4.11-.25-4.31-.52-4.83-1-5.11-1.04-.61-2.5.24-2.67.33Z"/>
    <path class="cls-4" d="m21.96,155.22c-1.11-.03-2.01,1.91-2.33,2.89-.88,2.68-.15,6.43,2,7.22.85.31,1.97.18,2.67-.44,1.16-1.04.71-3.09.33-4.78-.17-.77-1.07-4.85-2.67-4.89Z"/>
    <path class="cls-4" d="m22.25,171.25c-.31.37-.4.75.44,5.76.27,1.62.36,2.06.78,2.38,1.19.9,3.9.08,4.55-1.44.39-.9-.28-1.27-.86-4.38-.33-1.73-.22-2.16-.69-2.61-.99-.95-3.28-.83-4.21.29Z"/>
    <path class="cls-4" d="m7.68,99.05c-1.26-.92-3.28-.58-4.5.33-2.54,1.91-1.38,6.19-1.17,7,.31,1.16.75,2.78,2.17,3.33,1.16.46,2.51.03,3.33-.67,1.29-1.08,1.31-2.8,1.33-5,.03-2.46.05-4.12-1.17-5Z"/>
    <path class="cls-4" d="m5.68,115.22c-1.12-.7-2.88-.3-3.83.67-.88.89-.87,2.09-.83,4.5.04,2.7.06,4.04,1,4.83,1.33,1.11,3.81.9,5-.33,1.04-1.09.7-2.89,0-6.5-.47-2.42-.92-2.91-1.33-3.17Z"/>
    <path class="cls-4" d="m5.68,129.55c-1.38-.49-3.16.17-3.83,1.33-.54.94.04,1.51.33,4.5.26,2.65-.1,3.24.5,3.83,1.05,1.04,3.69.78,5-.67,1.38-1.52.76-3.77.33-5.33-.41-1.51-.86-3.15-2.33-3.67Z"/>
    <path class="cls-4" d="m7.34,143.22c-1.16-.57-2.79-.08-3.67.83-1.94,2.01-.98,6.87,1.67,7.83,1.5.54,3.66-.12,4.33-1.5.39-.8.1-1.76-.5-3.67-.64-2.04-.96-3.07-1.83-3.5Z"/>
    <path class="cls-4" d="m9.34,155.55c-1.26-.66-3.62.46-4.17,2-.29.81.15,1.12.5,3.5.33,2.25.04,2.63.5,3.17,1.18,1.37,4.91.94,5.67-.67.33-.71-.16-1.12-1-3.83-.93-3-.73-3.77-1.5-4.17Z"/>
  </g>
</svg>