<?xml version="1.0" encoding="UTF-8"?>
<svg id="Layer_1" data-name="Layer 1" xmlns="http://www.w3.org/2000/svg" viewBox="0 0 900 200">
  <defs>
    <style>
      .cls-1 {
        fill: #FFFFFF;
      }
    </style>
  </defs>
  <path class="cls-1" d="m334.22,99.98c14.12-22.79,34.65-35.37,60.99-39.43-.43,1.2-.76,2.15-1.12,3.09-6.26,16.59-12.52,33.18-18.78,49.76-2.05,5.43-4.12,10.86-6.18,16.29-.07.18-.14.36-.2.55-.39,1.17-.49,1.2-1.64.64-7.21-3.54-13.65-8.2-19.43-13.75-5.03-4.83-9.27-10.31-12.99-16.2-.12-.19-.23-.38-.36-.56-.06-.08-.17-.14-.33-.26-.3.42-.61.8-.86,1.22-5.92,9.54-13.55,17.45-22.74,23.86-8.51,5.93-17.8,10.16-27.89,12.57-2.63.63-5.28,1.2-7.96,1.59-2.57.37-5.18.52-7.77.69-1.94.12-3.89.25-5.82.14-3.42-.19-6.85-.42-10.24-.88-8.44-1.14-16.5-3.63-24.19-7.31-8.1-3.88-15.4-8.94-21.87-15.17-4.66-4.49-8.69-9.49-12.17-14.94-1.2-1.88-1.19-1.89.03-3.77,5.9-9.12,13.31-16.78,22.15-23.09,9.27-6.62,19.57-10.83,30.63-13.26,4.3-.95,8.65-1.6,13.06-1.74,1.75-.05,3.5-.18,5.25-.12,2.64.09,5.3.21,7.93.5,8.12.88,15.99,2.85,23.52,6.03,10.63,4.49,19.95,10.92,27.95,19.24,3.97,4.13,7.41,8.69,10.47,13.53.16.25.35.48.56.78Z"/>
  <path class="cls-1" d="m708.22,146.87h-17.42v-64.16c-.07-.04-.13-.09-.19-.13-.17.18-.39.33-.5.54-1.71,3.28-3.4,6.57-5.11,9.85-3.21,6.14-6.44,12.26-9.64,18.4-2.16,4.14-4.3,8.3-6.45,12.44-1.59,3.06-3.18,6.12-4.82,9.15-.14.27-.6.53-.91.53-4.35.03-8.7.02-13.1.02-8.91-17.02-17.82-34.05-26.73-51.08-.07.02-.14.04-.2.06v64.37h-17.51V53.23c.13,0,.37-.04.61-.04,6.47,0,12.94,0,19.41-.01.57,0,.84.17,1.11.71,3.89,7.6,7.82,15.18,11.73,22.77,3.11,6.03,6.19,12.07,9.3,18.11,2.95,5.74,5.92,11.46,8.89,17.19.12.24.29.46.51.8,1.59-3.17,3.09-6.22,4.64-9.25,4.91-9.61,9.84-19.21,14.74-28.82,3.4-6.66,6.83-13.31,10.13-20.02.6-1.21,1.22-1.52,2.47-1.51,6.02.07,12.05.03,18.07.03.3,0,.61,0,.98,0v93.68Z"/>
  <path class="cls-1" d="m502.68,146.87h-18.54c-2.35-6.63-4.69-13.22-7.03-19.81-.63-1.78-.64-1.79-2.49-1.79-11.27,0-22.53,0-33.8,0-2,0-2.03-.02-2.71,1.85-2.25,6.19-4.49,12.38-6.72,18.58-.13.37-.23.74-.36,1.17h-18.38c.18-.45.36-.86.52-1.28,4.75-12.64,9.49-25.28,14.24-37.92,5.48-14.59,10.97-29.18,16.45-43.77,1.28-3.41,2.55-6.82,3.85-10.22.08-.21.41-.46.62-.46,6.25-.02,12.49-.02,18.74,0,.22,0,.57.24.65.44,2.78,7.38,5.52,14.78,8.3,22.17,5.53,14.72,11.07,29.43,16.6,44.15,3.14,8.35,6.27,16.69,9.4,25.04.22.59.44,1.19.68,1.86Zm-31.05-35.07c-4.68-12.99-9.33-25.9-13.98-38.8-.08,0-.15,0-.23,0-4.6,12.89-9.2,25.79-13.84,38.79h28.04Z"/>
  <path class="cls-1" d="m592.71,117.85c-.4,1.51-.74,3-1.18,4.45-2.74,8.87-8.2,15.57-16.18,20.26-4.37,2.57-9.11,4.12-14.07,4.99-1.89.33-3.81.58-5.73.67-3.08.15-6.17.27-9.24.14-2.29-.09-4.57-.6-6.85-.92-3.15-.45-6.15-1.41-9.07-2.63-10.78-4.52-18.21-12.38-22.62-23.12-1.09-2.66-1.92-5.44-2.66-8.23-.49-1.86-.61-3.83-.89-5.75-.59-4.06-.5-8.15-.3-12.23.11-2.28.57-4.54.92-6.8.68-4.3,2.04-8.4,3.89-12.32,5.14-10.83,13.37-18.26,24.73-22.16,3.02-1.04,6.12-1.67,9.3-2.06,3.7-.46,7.4-.74,11.12-.47,6.36.47,12.58,1.53,18.38,4.4,9.52,4.71,16.05,11.99,19.14,22.23.49,1.64.88,3.31,1.34,5.08-1.46,0-2.76,0-4.05,0-4.77.01-9.54,0-14.31.05-.75,0-1.03-.23-1.25-.96-2.45-8.4-8.16-13.25-16.66-14.81-2.48-.46-5.05-.61-7.57-.55-7.18.16-13.61,2.38-18.67,7.69-4.12,4.33-6.41,9.6-7.64,15.43-.86,4.09-.92,8.2-.76,12.33.11,2.74.25,5.53.85,8.18,1.23,5.44,3.43,10.5,7.38,14.6,3.16,3.28,6.97,5.44,11.36,6.7,4.21,1.22,8.5,1.29,12.78.92,5.48-.47,10.41-2.43,14.4-6.36,2.25-2.22,3.75-4.9,4.49-7.97.17-.7.43-.98,1.15-.98,4.85.02,9.71,0,14.56.01,1.25,0,2.49.11,3.89.17Z"/>
</svg>