<?xml version="1.0" encoding="UTF-8"?>
<svg id="Layer_2" data-name="Layer 2" xmlns="http://www.w3.org/2000/svg" viewBox="0 0 71.92 73.12">
  <defs>
    <style>
      .cls-1 {
        fill: #889747;
      }

      .cls-2 {
        fill: #889746;
      }
    </style>
  </defs>
  <g id="Layer_3" data-name="Layer 3">
    <path class="cls-2" d="m0,43.26c1.67-.34,2.47.59,3.8,1.14,6.02,2.66,10.91,8.34,10.81,15.16.02,1.32-.08,2.64-.24,3.93-.25,1.28.04,2.54-1.93,3.88-2.16-.97-2.17-2.02-2.83-3.02-.57-1-1.2-1.94-1.81-2.86-1.27-1.81-2.25-3.56-3.08-5.41-1.62-3.29-2.33-7.48-4.2-10.82-.29-.51-.58-1.03-.52-2H0Z"/>
    <path class="cls-1" d="m20.69,68.71c.37.41,1.48,1.64,2.23,1.31.16-.07.25-.16.29-.21.77-.78,2.02-1.13,3.38-1.5,1.03-.29,1.96-.43,2.46-.5,1.05-.16,1.37-.13,2-.38.68-.27,1.14-.81,1.46-.62.14.08.19.25.21.33.34,1.37.53,5.67,1.17,5.88.21.07.6-.26,1.62-2.04,2-3.48,2.82-6.28,3.26-6.18.14.03.18.36.2.47.47,4.07.52,7.57,1.24,7.83.16.06.63.08,2.63-2.96,4.17-6.33,3.58-7.75,7.75-3.5,2.41,2.46,3.93,3.25,5.08,3.52.41.1,1.51.11,2.09.23.07.02.31.07.62.04,0,0,.21-.02.42-.08.69-.21,2.47-2.13,3.92-2.54.27-.08,1.24.1,3.17.46.43.08,1.71.32,3-.08.17-.05.26-.09.35-.15.99-.67.48-2.87.36-3.35-.51-1.96-.88-3.79-1.14-5.43-.38-2.37-.65-4.08-.56-6.33.03-.71.16-2.8.89-5.44,1.38-4.97,3.67-7.44,3.02-8.05-.32-.29-.95.28-3.9,1.6-6.67,3-7.22,3.78-11.89,7.78-4.67,4-4.67,8.67-5.33,5.11-.21-1.13-.38-1.68-.41-2.72-.39-12.73.52-18.16.52-18.16,1.24-7.38,3.37-12.53,5.22-17,.65-1.58,5.1-12.17,9-14.89.2-.14,1.18-.8,1.06-1.05-.19-.41-3.26.57-3.95.82-6.95,2.55-12.61,6.78-13.33,7.33-2.97,2.25-5.13,3.88-7.67,6.67-1.38,1.52-5.78,6.56-8.78,14.33-1.84,4.77-3.09,10.4-3.33,10.33-.02,0-.07-.22-.03-.23.01,0,.03.01.03.01.02-.01-2.94-5.86-8.33-9.56-4.2-2.88-9.33-4.09-9.7-3.38-.2.38.98,1.29,1.81,2.05,4.18,3.81,5.63,9.23,6.67,13.11,3.01,11.27-.99,24.68,1.24,27.12Z"/>
  </g>
</svg>