<?xml version="1.0" encoding="UTF-8"?>
<svg id="Layer_1" data-name="Layer 1" xmlns="http://www.w3.org/2000/svg" viewBox="0 0 900 200">
  <defs>
    <style>
      .cls-1 {
        fill: #6b5e51;
        stroke-width: 0px;
      }
    </style>
  </defs>
  <path class="cls-1" d="m393.26,104.42c-.93,2.93-1.74,5.49-2.56,8.05-1.03,3.21-2.09,6.41-3.09,9.64-1.05,3.37-2.05,6.76-3.03,10.15-.1.33.02.82.21,1.13,1.11,1.78,1.17,3.59-.03,5.28-1.06,1.49-2.61,2.24-4.47,1.92-2.02-.35-3.34-1.56-3.9-3.59-.48-1.76.35-3.78,2.22-4.86.83-.48,1.26-1.09,1.54-1.98,2.18-6.99,4.4-13.97,6.61-20.95,1.37-4.32,2.74-8.63,4.13-12.95.13-.39.23-.9.53-1.11.77-.56,1.61-1.3,2.47-1.37,1.01-.08,1.78.79,2.05,1.88,1.01,4.03,2.01,8.06,3.01,12.09.53,2.13,1.06,4.26,1.9,6.44.15-.38.33-.76.45-1.15,1.55-4.83,3.08-9.66,4.65-14.49,1.11-3.4,2.3-6.78,3.41-10.18,1.93-5.89,3.83-11.78,5.73-17.68,1.1-3.4,2.14-6.81,3.26-10.2.24-.74.23-1.3-.22-1.97-1.13-1.71-1.01-3.47.09-5.15,1.34-2.05,3.41-1.85,5.39-1.54,1.49.23,2.32,1.45,2.73,2.82.54,1.77.34,3.66-1.22,4.64-2.09,1.31-2.41,3.39-3.06,5.34-1.64,4.93-3.1,9.92-4.69,14.87-2.39,7.4-4.83,14.79-7.25,22.18-1.84,5.61-3.69,11.22-5.51,16.84-.44,1.34-.7,2.74-1.19,4.07-.53,1.45-1.88,2.16-3.32,1.7-.61-.2-1.36-.81-1.54-1.39-1.36-4.45-2.59-8.95-3.87-13.43-.45-1.58-.91-3.15-1.45-5.03Z"/>
  <path class="cls-1" d="m505.39,67.61c.31-.97.59-1.79.84-2.61,1.62-5.15,3.25-10.3,4.84-15.46.98-3.18,1.93-6.37,2.82-9.58.12-.45-.07-1.07-.31-1.51-1.07-2.01-.89-3.98.59-5.53,1.46-1.52,3.48-1.94,5.25-1.09,1.93.94,3,2.9,2.69,5.03-.22,1.48-1.14,2.51-2.38,3.19-.74.4-1.07.92-1.3,1.68-1.99,6.3-4.03,12.6-6.03,18.9-1.57,4.95-3.11,9.92-4.67,14.88-.14.44-.26.88-.48,1.28-.54.98-1.34,1.61-2.52,1.49-1.16-.12-1.89-.78-2.17-1.93-.96-3.91-1.91-7.83-2.88-11.74-.57-2.29-1.16-4.58-1.78-7.05-.21.26-.33.36-.38.48-.77,2.24-1.55,4.48-2.28,6.74-1.81,5.58-3.58,11.17-5.39,16.75-1.95,6.01-3.93,12.01-5.88,18.02-1.31,4.03-2.55,8.09-3.88,12.12-.27.82-.12,1.44.34,2.09,1.08,1.56.88,3.13-.01,4.69-1.03,1.81-3.27,2.64-6.16,1.59-1.34-.48-2.34-2.66-2.13-4.56.17-1.51.86-2.62,2.14-3.47.5-.33.92-.95,1.11-1.53,1.95-5.93,3.84-11.88,5.77-17.82,2.49-7.63,5.01-15.26,7.5-22.89,2.04-6.24,4.07-12.49,6.09-18.74.18-.55.17-1.16.4-1.68.45-.99,1.31-1.47,2.38-1.57,1.11-.09,2,.38,2.52,1.31.39.71.55,1.55.77,2.34,1.42,5.27,2.83,10.53,4.25,15.8.02.07.1.12.34.38Z"/>
  <path class="cls-1" d="m427.28,31.52c3.38,0,5.27,1.69,5.28,4.25,0,1.14-.55,2.29-.81,3.44-.09.41-.2.89-.09,1.27,2.05,7.42,4.11,14.83,6.2,22.24,1.78,6.33,3.61,12.64,5.4,18.96,1.93,6.8,3.83,13.61,5.75,20.41,1.93,6.84,3.87,13.68,5.78,20.53.72,2.56,1.34,5.14,2.09,7.69.15.52.6,1.07,1.06,1.37,2.39,1.59,3.03,4.19,1.52,6.49-1.41,2.17-4.39,2.73-6.6,1.24-2.17-1.46-2.62-4.24-1.11-6.52.24-.36.42-.93.31-1.32-1.34-4.98-2.72-9.94-4.13-14.9-1.17-4.12-2.42-8.23-3.59-12.35-1.99-6.96-3.95-13.93-5.92-20.9-1.94-6.84-3.87-13.68-5.81-20.53-1.82-6.44-3.69-12.87-5.42-19.33-.45-1.68-.79-3.18-2.35-4.34-1.47-1.1-1.77-2.95-1.02-4.67.8-1.82,2.2-3.02,3.47-3.04Z"/>
  <path class="cls-1" d="m373.13,35.74c1.77,0,3.72,1.38,4.42,3.13.7,1.76.38,3.91-1.24,5.1-1.62,1.19-2.25,2.77-2.81,4.52-1.08,3.33-2.24,6.62-3.33,9.95-1.85,5.65-3.69,11.3-5.5,16.97-1.52,4.75-2.95,9.53-4.48,14.28-2.3,7.16-4.68,14.31-6.99,21.47-1.4,4.35-2.73,8.73-4.09,13.09-.78,2.49-1.61,4.97-2.35,7.47-.13.45,0,1.05.18,1.52,1.12,3.1.47,6.21-2.52,7.18-2.25.73-4.84-.39-5.76-2.51-1.04-2.42-.24-5.13,1.98-6.19.71-.34,1-.75,1.22-1.45,1.66-5.2,3.38-10.37,5.08-15.56,1.96-5.96,3.93-11.92,5.87-17.89,1.88-5.82,3.72-11.65,5.57-17.47,1.6-5.03,3.19-10.06,4.8-15.09,2.08-6.46,4.15-12.91,6.29-19.35.27-.8.03-1.31-.34-1.94-1.86-3.19.38-7.22,3.99-7.22Z"/>
  <path class="cls-1" d="m441.31,31.5c2.42-.06,3.61,1.28,4.52,2.96.86,1.6.44,3.12-.62,4.42-.59.72-.62,1.27-.36,2.12,1.56,5.09,3.07,10.2,4.54,15.32,1.8,6.27,3.56,12.55,5.31,18.84,1.46,5.24,2.88,10.5,4.35,15.74,2.1,7.48,4.23,14.96,6.35,22.44,1.62,5.72,3.23,11.44,4.87,17.16.12.4.36.84.69,1.09,2.35,1.84,2.81,4.98,1.04,7.31-1.58,2.08-5.61,1.78-7.11-.53-1.22-1.88-1.12-3.87.19-5.71.27-.38.38-1.07.25-1.53-1.27-4.53-2.63-9.03-3.92-13.56-1.87-6.55-3.7-13.12-5.56-19.68-1.97-6.96-3.93-13.93-5.91-20.89-1.92-6.75-3.88-13.5-5.78-20.26-1.41-5-2.72-10.03-4.14-15.03-.18-.62-.61-1.27-1.11-1.67-1.43-1.15-2.26-3.55-1.68-5.28.72-2.12,2.23-3.26,4.09-3.27Z"/>
  <path class="cls-1" d="m520.69,131.47c-.05-1.66.86-2.77,2-3.84.72-.68,1.42-1.54,1.75-2.46,1.58-4.43,3.06-8.9,4.52-13.37,1.78-5.45,3.5-10.93,5.26-16.39,1.99-6.17,4-12.34,5.99-18.51,1.95-6.06,3.85-12.14,5.8-18.2,1.85-5.78,3.78-11.55,5.56-17.36.29-.94.2-2.16-.15-3.1-.89-2.44-.18-5.14,1.88-6.25,2.28-1.23,4.62-.63,6.13,1.56,1.45,2.1,1.19,5.07-1,6.43-1.5.93-1.84,2.19-2.3,3.57-1.32,3.95-2.68,7.88-3.96,11.84-1.96,6.05-3.86,12.13-5.81,18.19-1.74,5.42-3.52,10.84-5.28,16.26-2.08,6.41-4.15,12.82-6.22,19.24-1.84,5.7-3.67,11.41-5.49,17.11-.36,1.14-.35,2.24.21,3.38.84,1.72.37,4.33-.84,5.52-1.14,1.12-3.58,1.56-5.05.92-1.78-.77-3-2.63-2.98-4.55Z"/>
  <path class="cls-1" d="m352.93,137.6c.52-1.63,1.2-3.81,1.9-5.98,1.32-4.08,2.62-8.16,3.98-12.22,1.42-4.27,2.92-8.51,4.33-12.78,2.27-6.88,4.48-13.77,6.72-20.66,1.81-5.58,3.62-11.16,5.43-16.74,1.73-5.34,3.46-10.69,5.2-16.03.24-.75.57-1.47.86-2.21.51-1.33,1.59-1.88,2.96-1.5,1.34.37,2.17,1.67,1.78,2.98-.62,2.07-1.35,4.11-2.02,6.17-2.21,6.8-4.42,13.61-6.62,20.42-1.13,3.52-2.2,7.07-3.35,10.58-1.18,3.6-2.47,7.16-3.65,10.76-1.31,3.99-2.52,8.01-3.82,12-2.56,7.83-5.17,15.65-7.75,23.48-.36,1.1-.58,2.26-.99,3.34-.54,1.41-1.63,1.94-3.1,1.66-1.28-.24-1.86-1.07-1.85-3.27Z"/>
  <path class="cls-1" d="m514.93,124.57c-2.03-.02-3.11-1.8-2.38-3.94,1.53-4.49,3.1-8.98,4.59-13.48,1.57-4.73,3.06-9.49,4.59-14.23,1.77-5.5,3.54-11,5.33-16.5.54-1.66,1.16-3.3,1.7-4.96,1.95-5.97,3.88-11.94,5.81-17.92,2.05-6.33,4.09-12.66,6.14-18.99.37-1.14,1.85-1.85,3.08-1.51,1.26.34,2.17,1.72,1.84,2.98-.38,1.45-.89,2.86-1.37,4.29-.86,2.52-1.76,5.03-2.59,7.56-2.31,7-4.6,14-6.88,21-1.85,5.69-3.67,11.4-5.52,17.09-1.89,5.81-3.84,11.6-5.72,17.41-1.94,5.97-3.85,11.96-5.76,17.94-.1.31-.12.65-.18.97-.23,1.38-1.31,2.3-2.68,2.28Z"/>
  <path class="cls-1" d="m367.76,140.92c-1.94.01-3.14-1.52-2.55-3.3,1.31-3.95,2.71-7.87,4.04-11.82.69-2.04,1.29-4.11,1.97-6.16,1.07-3.2,2.19-6.38,3.25-9.58,1.87-5.65,3.69-11.31,5.56-16.95,2.17-6.55,4.36-13.09,6.55-19.64.13-.4.28-.79.38-1.19.4-1.54,1.55-2.22,3.09-1.79,1.37.38,2.14,1.73,1.67,3.12-1.42,4.18-2.93,8.33-4.32,12.51-1.04,3.11-1.93,6.27-2.94,9.39-.89,2.73-1.89,5.43-2.8,8.15-1.92,5.71-3.84,11.43-5.72,17.15-2.04,6.2-4.02,12.43-6.04,18.63-.34,1.05-1.19,1.42-2.12,1.47Z"/>
  <path class="cls-1" d="m506.55,101.09c.41-1.25.79-2.44,1.19-3.61,1.39-4.01,2.83-8.01,4.17-12.04,1.76-5.29,3.42-10.61,5.17-15.9,2.05-6.19,4.16-12.37,6.2-18.56,1.66-5.01,3.25-10.04,4.89-15.05.19-.59.44-1.17.75-1.71.66-1.17,1.66-1.54,2.83-1.11,1.12.41,1.83,1.46,1.58,2.66-.26,1.22-.71,2.39-1.09,3.58-1.08,3.4-2.14,6.81-3.27,10.2-1.18,3.56-2.45,7.08-3.64,10.63-1.42,4.26-2.78,8.53-4.19,12.79-1,3-2.07,5.98-3.08,8.98-1.95,5.79-3.88,11.59-5.8,17.39-.25.74-.37,1.53-.5,2.31-.21,1.19-1.13,1.61-2.08,1.61-.84,0-1.75-.33-2.51-.74-.36-.2-.42-.93-.62-1.42Z"/>
  <path class="cls-1" d="m390.36,31.78c3.13.02,5.26,3.63,3.79,6.54-.46.9-.47,1.66-.2,2.6,1.42,4.92,2.8,9.85,4.15,14.79,1.93,7.1,3.83,14.21,5.73,21.32.11.4.17.82.2,1.23.11,1.34.48,2.41,1.79,3.18,1.86,1.09,2.32,3.79,1.19,5.78-1.02,1.79-3.37,2.51-5.34,1.63-1.88-.84-3.04-3.33-2.14-5.25.66-1.41.39-2.57.02-3.93-1.4-5.09-2.69-10.21-4.05-15.31-.79-2.93-1.69-5.84-2.47-8.78-1.2-4.49-2.35-9-3.51-13.51-.22-.84-.47-1.47-1.49-1.75-1.27-.35-2.26-2.82-1.96-4.67.38-2.29,1.91-3.93,4.29-3.88Z"/>
  <path class="cls-1" d="m503.92,135.35c.04-.19.02-.8.29-1.22.81-1.23.52-2.42.15-3.69-.93-3.15-1.83-6.31-2.68-9.48-1.41-5.26-2.75-10.54-4.16-15.8-.71-2.65-1.52-5.27-2.23-7.92-.38-1.4-.67-2.83-.93-4.26-.18-.96-.63-1.6-1.47-2.15-2.59-1.72-2.69-5.24-.29-7.12,1.47-1.15,3.34-1.21,4.75-.15,1.81,1.36,2.49,3.41,1.54,5.27-.53,1.05-.41,1.91-.11,2.96.89,3.16,1.59,6.36,2.45,9.53,1.56,5.74,3.21,11.46,4.78,17.2,1.08,3.97,2.07,7.96,3.13,11.94.09.35.34.77.63.92,2.21,1.16,3.2,3.44,2.46,5.81-.73,2.33-2.47,3.39-4.85,2.98-1.92-.34-3.49-2.37-3.45-4.82Z"/>
  <path class="cls-1" d="m430.72,68.81c1.66,0,2.64,1.32,2.2,2.92-.71,2.61-1.48,5.2-2.3,7.78-1.67,5.27-3.38,10.54-5.11,15.8-1.21,3.68-2.49,7.33-3.7,11.01-2.16,6.51-4.28,13.04-6.45,19.55-.24.71-.52,1.54-1.05,2-.83.71-1.91.58-2.78-.09-.85-.66-1.23-1.52-.85-2.65,1.46-4.34,2.9-8.7,4.32-13.05,1.98-6.05,3.94-12.1,5.89-18.15,1.89-5.86,3.78-11.71,5.65-17.58.62-1.93,1.16-3.89,1.8-5.82.39-1.18,1.13-1.96,2.37-1.7Z"/>
  <path class="cls-1" d="m467.71,104.08c-1.62,0-2.59-1.43-2.07-3.18.8-2.75,1.65-5.49,2.52-8.22,1.73-5.43,3.46-10.85,5.23-16.27,1.29-3.95,2.68-7.88,3.98-11.83,1.93-5.88,3.83-11.78,5.75-17.66.32-.98.74-2.05,1.91-2.01.82.02,1.85.38,2.37.96.44.49.54,1.59.33,2.29-1,3.26-2.19,6.46-3.24,9.71-1.09,3.36-2.07,6.75-3.15,10.11-1.06,3.29-2.21,6.55-3.29,9.83-1.81,5.48-3.61,10.97-5.37,16.47-.84,2.61-1.57,5.25-2.39,7.87-.41,1.31-1.32,1.96-2.57,1.95Z"/>
  <path class="cls-1" d="m381.79,150.14c1.63,0,3.17-.05,4.7.04.32.02.76.55.88.92.97,3.18,1.87,6.39,2.8,9.59.06.22.17.44.58.69.66-2.37,1.32-4.73,1.97-7.1.07-.24.06-.5.11-.74q.78-3.4,4.26-3.4c.74,0,1.48,0,2.27,0v17.93h-3.79v-9.18c-.14-.03-.28-.05-.42-.08-.91,3.02-1.82,6.05-2.81,9.32-1.02,0-2.26.05-3.48-.04-.24-.02-.54-.57-.64-.92-.72-2.56-1.4-5.13-2.1-7.69-.05-.18-.15-.34-.52-.48,0,.76,0,1.52,0,2.29,0,1.96-.03,3.92,0,5.88.01.76-.26,1.05-1.02,1.01-.91-.05-1.82-.01-2.82-.01v-18.03Z"/>
  <path class="cls-1" d="m338.96,168.15v-17.99c1.71,0,3.4-.04,5.08.05.26.01.62.6.72.97.83,3.09,1.62,6.19,2.42,9.29.08.3.22.58.46,1.22.42-1.24.76-2.15,1.02-3.08.73-2.52,1.4-5.06,2.17-7.56.11-.36.58-.84.91-.86,1.57-.09,3.16-.04,4.87-.04.04.47.11.87.11,1.26,0,5.13-.03,10.26.02,15.39.01,1.12-.33,1.5-1.43,1.38-.73-.08-1.48-.02-2.4-.02v-9.24c-.11-.02-.23-.04-.34-.06-.34.99-.69,1.98-1.02,2.98-.45,1.38-.87,2.78-1.32,4.16-.23.7-.35,1.85-.78,1.99-.99.31-2.14.2-3.21.1-.27-.02-.58-.62-.7-1-.86-2.68-1.67-5.38-2.76-8.07-.03.33-.09.65-.09.98,0,2.38-.02,4.75,0,7.13,0,.73-.19,1.08-.99,1.04-.87-.05-1.74-.01-2.76-.01Z"/>
  <path class="cls-1" d="m490.42,160.52c.92-3.43,1.84-6.87,2.77-10.31h4.14c-.59,1.89-1.19,3.65-1.69,5.44-1.04,3.72-2.07,7.44-3.03,11.18-.26,1.02-.72,1.39-1.79,1.35-2.36-.08-2.37-.02-2.92-2.35-.62-2.59-1.22-5.18-2.09-7.82-.39,1.45-.84,2.88-1.17,4.34-.39,1.7-.69,3.41-1.02,5.12-.02.12-.05.34-.09.35-1.13.12-2.25.29-3.38.29-.28,0-.7-.51-.8-.87-1.06-3.58-2.05-7.18-3.08-10.77-.59-2.07-1.23-4.13-1.89-6.34,1.34,0,2.54-.06,3.74.04.28.02.64.54.74.9.76,2.72,1.47,5.47,2.2,8.2.11.4.24.78.68,1.21.75-3.38,1.49-6.76,2.28-10.34.96,0,2.12-.06,3.26.04.3.03.72.51.8.84.62,2.75,1.16,5.52,1.73,8.28.08.4.21.79.32,1.19.1,0,.2.02.31.02Z"/>
  <path class="cls-1" d="m515.86,150.15c3.17,0,6.21-.07,9.25.02,2.31.07,3.89,1.48,4.54,3.75.59,2.03-.11,4.17-1.76,5.44-.09.07-.15.18.12.17.39.92.97,1.81,1.15,2.76.34,1.86.46,3.76.69,5.84-1.08,0-2.19.06-3.28-.04-.26-.02-.63-.52-.7-.84-.21-1.06-.33-2.14-.42-3.22-.14-1.85-.95-2.73-2.78-2.9q-2.92-.27-2.92,2.62c0,1.41,0,2.82,0,4.3h-3.91v-17.91Zm3.96,3.47c0,1.36-.02,2.43.02,3.5,0,.23.27.65.39.65,1.59-.09,3.21-.12,4.75-.46.41-.09.82-1.22.81-1.86,0-.5-.6-1.35-1.04-1.42-1.56-.27-3.17-.28-4.92-.4Z"/>
  <path class="cls-1" d="m514.2,159.25c-.02,4.46-2.63,8.15-6.42,9.06-5.22,1.25-9.74-1.61-10.82-6.9-.83-4.11.29-7.54,3.62-10.22,3.14-2.53,10.09-1.52,11.74,1.97,1.26,2.65,1.89,3.79,1.88,6.09Zm-4.03.02c-.34-1.29-.61-2.49-.99-3.67-.54-1.66-2.01-2.11-3.47-2.15-1.48-.04-3.06.22-3.85,1.78-1.34,2.62-1.4,5.32.07,7.88,1.62,2.82,5.63,2.71,7.1-.19.57-1.12.77-2.42,1.15-3.66Z"/>
  <path class="cls-1" d="m438.24,97.02c-.43,1.31-.99,3.13-1.62,4.93-1.94,5.58-3.9,11.15-5.87,16.72-1.32,3.72-2.68,7.43-4.02,11.15-.31.87-1.51,1.46-2.48,1.22-1.29-.32-2.13-1.57-1.84-2.85.14-.65.39-1.27.62-1.9,1.12-3.05,2.27-6.09,3.37-9.14,1.87-5.2,3.72-10.4,5.53-15.62.61-1.76,1.04-3.59,1.7-5.34.26-.68.84-1.39,1.46-1.74,1.54-.86,3.17.25,3.13,2.57Z"/>
  <path class="cls-1" d="m462.67,78.78c-1.82-.03-2.79-1.46-2.25-3.07,1.35-4.02,2.76-8.02,4.15-12.03,1.25-3.62,2.47-7.25,3.74-10.85,1.07-3.02,2.19-6.03,3.32-9.03.6-1.6,1.58-2.12,2.97-1.65,1.26.43,1.8,1.72,1.27,3.2-1.01,2.82-2.11,5.61-3.11,8.44-2.01,5.69-3.99,11.38-5.96,17.08-.7,2.04-1.35,4.1-2.01,6.16-.38,1.2-1.23,1.72-2.12,1.76Z"/>
  <path class="cls-1" d="m561.46,155.71c-1.25,0-2.33.04-3.4-.03-.28-.02-.66-.32-.79-.59-.82-1.7-3.78-2.41-5.29-1.24-.82.64-.62,2.03.45,2.42,1.32.49,2.76.66,4.05,1.19,1.44.58,2.91,1.24,4.13,2.18,1.43,1.1,1.48,4.4.4,5.87-2.09,2.84-4.99,3.43-8.23,2.97-2.77-.39-4.99-1.61-5.9-4.48-.17-.53-.15-1.11-.23-1.82,1.33,0,2.49-.05,3.64.04.28.02.64.46.75.78.75,2.16,4.52,3.02,6.1,1.36.78-.82.44-2.33-.73-2.73-1.89-.64-3.81-1.21-5.74-1.72-2.74-.71-4.16-3.34-3.29-6.11.68-2.15,2.24-3.21,4.3-3.76,2-.54,3.95-.46,5.87.31,2.32.93,3.43,2.77,3.89,5.36Z"/>
  <path class="cls-1" d="m465.53,160.64h-6.24c0,1.96,0,3.91,0,5.85q0,1.74-1.77,1.74-2.37,0-2.36-2.4c0-4.71,0-9.43,0-14.14,0-.45,0-.9,0-1.45h4.08v6.6h6.27v-6.63h4c.03.36.09.72.09,1.08,0,5.21-.02,10.43.03,15.64,0,1-.31,1.33-1.26,1.31-3.44-.07-2.75.44-2.81-2.7-.03-1.58,0-3.16,0-4.9Z"/>
  <path class="cls-1" d="m427.32,160.53c0,1.17,0,2.28,0,3.39,0,.81.59.76,1.15.76,2.71,0,5.41,0,8.22,0v3.37h-13.25c-.04-.26-.13-.53-.13-.81-.02-5.34-.04-10.68-.05-16.02,0-.56-.05-1.09.79-1.09,4.17.02,8.33,0,12.61,0v3.64h-9.21v3.2h8.21c0,1.03.08,1.94-.05,2.83-.04.27-.66.63-1.03.64-1.92.06-3.84.01-5.75,0-.41,0-.82.04-1.52.07Z"/>
  <path class="cls-1" d="m531.8,150.2h4.11v6.03c1.7-1.64,3.31-3.06,4.73-4.63.83-.91,1.56-1.64,2.91-1.5,1.13.12,2.29.02,3.43.02.06.11.12.23.18.34-1.58,1.55-3.17,3.1-4.75,4.65-.21.2-.41.42-.61.63-1.66,1.73-1.62,1.92-.18,3.86,1.88,2.53,3.68,5.13,5.5,7.7.14.19.21.43.41.82-1.59,0-3.03.05-4.46-.04-.31-.02-.66-.44-.88-.76-1.37-1.99-2.7-4-4.05-5.99-.23-.34-.49-.65-.77-1.01-1.03.58-1.59,1.28-1.52,2.51.1,1.7.03,3.4.03,5.2h-4.09v-17.85Z"/>
  <path class="cls-1" d="m363.91,168.15c1.05-2.91,2.03-5.58,2.97-8.27,1.05-3.02,2.05-6.06,3.11-9.07.09-.27.44-.57.72-.63.48-.1.99-.03,1.49-.03,2.4,0,2.34.02,3.09,2.29,1.03,3.15,2.16,6.28,3.27,9.41.6,1.69,1.23,3.36,1.84,5.04.14.38.23.77.38,1.28-1.39,0-2.65.09-3.87-.05-.38-.05-.84-.69-1-1.15-.81-2.36-.78-2.37-3.3-2.37-3.01,0-3,0-4.13,2.83-.12.3-.53.67-.83.69-1.11.08-2.23.03-3.75.03Zm8.47-12.58c-.1.02-.2.03-.29.05-.53,1.76-1.06,3.52-1.62,5.41h3.71c-.62-1.9-1.21-3.67-1.8-5.45Z"/>
  <path class="cls-1" d="m449.7,162.04h4.29c-.4,1.17-.55,2.29-1.12,3.12-3.3,4.85-9.59,3.88-12.44,1.31-2.83-2.54-3.27-5.79-2.77-9.22.72-5,4.07-7.13,7.87-7.49,4.63-.45,8.15,3.11,8.16,6.37h-3.85c-1.35-2.44-3.12-3.2-5.52-2.28-1.95.75-2.21,2.6-2.51,4.3-.33,1.86.15,3.63,1.19,5.24.93,1.43,2.25,2,3.97,1.67,1.59-.31,2.42-1.2,2.74-3.01Z"/>
  <path class="cls-1" d="m421.75,150.15v3.61h-4.99v14.46c-1.32,0-2.51.06-3.68-.05-.22-.02-.52-.73-.53-1.13-.04-3.92-.06-7.84,0-11.75.02-1.12-.25-1.61-1.44-1.48-.95.1-1.92.09-2.87-.02-.34-.04-.86-.49-.91-.83-.46-2.6-.25-2.81,2.38-2.81,3.54,0,7.09,0,10.63,0,.45,0,.9,0,1.42,0Z"/>
  <path class="cls-1" d="m401.82,168.16v-17.93h4.09c0,1.35,0,2.63,0,3.91,0,4.3-.03,8.6.02,12.89,0,.9-.28,1.18-1.14,1.13-.95-.06-1.9-.01-2.96-.01Z"/>
  <path class="cls-1" d="m363.05,168.08h-4.04v-17.84h4.04v17.84Z"/>
</svg>