<?xml version="1.0" encoding="UTF-8"?>
<svg id="Layer_1" data-name="Layer 1" xmlns="http://www.w3.org/2000/svg" viewBox="0 0 900 200">
  <defs>
    <style>
      .cls-1 {
        fill-rule: evenodd;
      }

      .cls-1, .cls-2 {
        fill: #6b5e51;
        stroke-width: 0px;
      }
    </style>
  </defs>
  <g>
    <path class="cls-1" d="m300.61,83.21c-6.25,0-11.61,2.23-16.08,5.81v-4.91h-15.18v57.61h15.63v-36.62c2.23-3.13,7.59-7.15,14.29-7.15,2.23,0,4.47.45,6.25.89v-14.74c-1.79-.45-3.57-.89-4.91-.89"/>
    <path class="cls-1" d="m166.19,123.84c4.02,3.57,10.27,5.81,15.63,5.81,4.02,0,7.59-2.23,7.59-4.91,0-8.93-28.14-5.81-28.14-24.12,0-11.17,10.72-17.86,21.88-17.86,7.59,0,15.63,2.68,19.65,5.81l-7.15,11.17c-3.13-1.79-6.7-4.02-11.17-4.02s-7.59,1.79-7.59,4.91c0,7.59,28.14,4.47,28.14,24.56,0,11.17-10.72,17.86-22.78,17.86-8.04,0-16.52-2.68-23.22-7.59l7.15-11.61Z"/>
    <path class="cls-1" d="m262.65,112.23c0-16.08-11.17-29.48-27.24-29.48-16.97,0-28.14,14.29-28.14,29.92,0,18.31,12.95,29.92,29.92,29.92,8.93,0,17.86-3.57,23.67-10.27l-8.93-8.93c-2.68,3.13-8.04,6.7-14.29,6.7-8.04,0-14.74-5.81-15.63-13.84h39.75c.89-.89.89-2.23.89-4.02Zm-39.3-6.7c.89-5.36,6.25-10.27,12.5-10.27s10.72,4.91,11.61,10.27h-24.12Z"/>
    <polygon class="cls-1" points="373.41 84.1 347.06 141.71 336.34 141.71 309.99 84.1 325.62 84.1 341.7 119.38 357.33 84.1 373.41 84.1"/>
    <path class="cls-1" d="m386.36,56.86c5.81,0,10.27,4.47,10.27,9.83,0,5.81-4.47,9.83-10.27,9.83s-9.83-4.47-9.83-9.83c0-5.81,4.02-9.83,9.83-9.83"/>
    <rect class="cls-2" x="378.77" y="84.1" width="15.63" height="57.61"/>
    <path class="cls-1" d="m457.82,129.64c-6.7,8.93-15.18,12.95-25.9,12.95-17.86,0-30.82-13.4-30.82-29.92s13.4-29.92,30.82-29.92c10.27,0,18.76,4.91,24.12,11.61l-10.27,9.38c-3.13-4.02-7.59-6.7-12.95-6.7-8.93,0-15.63,7.15-15.63,15.63,0,8.93,6.25,15.63,15.63,15.63,6.25,0,11.17-3.57,13.84-7.59l11.17,8.93Z"/>
    <path class="cls-1" d="m513.64,132.32c-5.81,6.7-14.74,10.27-23.67,10.27-16.97,0-29.92-11.61-29.92-29.92,0-16.08,10.72-29.92,28.14-29.92,15.63,0,27.24,13.4,27.24,29.48,0,1.79,0,3.13-.45,4.47h-40.19c.89,8.04,7.59,13.84,15.63,13.84,6.25,0,11.61-3.57,14.29-6.7l8.93,8.49Zm-14.29-26.8c-.45-4.91-4.91-10.27-11.61-10.27-6.25,0-11.61,4.91-12.5,10.27h24.12Z"/>
    <path class="cls-1" d="m521.23,141.7v-57.61h14.74v4.91c4.47-3.57,9.83-5.81,16.08-5.81,8.04,0,15.18,3.57,20.1,9.38,3.57,4.47,6.25,10.27,6.25,20.1v29.48h-15.63v-30.82c0-5.81-1.34-8.93-3.57-10.72-2.23-2.23-4.91-3.57-8.93-3.57-6.25,0-11.61,4.02-14.29,7.15v37.51h-14.74Z"/>
  </g>
  <path class="cls-1" d="m618.15,82.76c-18.76,0-33.5,14.74-33.5,33.5,0,9.83,4.02,18.76,10.27,25.01,2.23,2.23,6.25,2.23,8.93.45,3.57-3.13,8.93-4.91,14.29-4.91,5.81,0,10.27,1.79,14.29,4.91,2.68,2.23,6.25,1.79,8.93-.89,6.25-6.25,10.27-14.74,10.27-24.56-.45-18.31-15.18-33.5-33.5-33.5m-.45,50.91c-10.27,0-16.97-7.59-16.97-16.97s6.7-16.97,16.97-16.97,16.97,7.59,16.97,16.97-6.7,16.97-16.97,16.97"/>
  <polygon class="cls-1" points="647.62 84.1 662.81 84.1 675.31 117.15 687.81 84.1 700.77 84.1 712.82 117.15 725.33 84.1 740.96 84.1 718.18 141.71 706.57 141.71 694.07 109.11 682.01 141.71 670.4 141.71 647.62 84.1"/>
</svg>